HIERARCHY
ROOT Hips
{
	OFFSET -2.367664 84.929161 5.921969
	CHANNELS 6 Xposition Yposition Zposition Zrotation Yrotation Xrotation 
	JOINT Spine
	{
		OFFSET 0.000000 8.814246 -2.080107
		CHANNELS 3 Zrotation Yrotation Xrotation
		JOINT Spine1
		{
			OFFSET -0.000000 8.844141 0.000000
			CHANNELS 3 Zrotation Yrotation Xrotation
			JOINT Spine2
			{
				OFFSET 0.000000 11.682268 0.000000
				CHANNELS 3 Zrotation Yrotation Xrotation
				JOINT Spine3
				{
					OFFSET -0.000000 11.746700 0.000000
					CHANNELS 3 Zrotation Yrotation Xrotation
					JOINT Neck
					{
						OFFSET -0.000000 17.658264 0.000000
						CHANNELS 3 Zrotation Yrotation Xrotation
						JOINT Neck1
						{
							OFFSET 0.000000 5.101515 0.000000
							CHANNELS 3 Zrotation Yrotation Xrotation
							JOINT Head
							{
								OFFSET 0.000000 5.101515 -0.000000
								CHANNELS 3 Zrotation Yrotation Xrotation
								JOINT HeadEnd
								{
									OFFSET -0.000000 11.655085 0.000000
									CHANNELS 3 Zrotation Yrotation Xrotation
									End Site
									{
										OFFSET 0.000000 0.000000 0.000000
									}
								}
							}
						}
					}
					JOINT RightShoulder
					{
						OFFSET -2.625389 11.175210 0.000000
						CHANNELS 3 Zrotation Yrotation Xrotation
						JOINT RightArm
						{
							OFFSET 0.000000 10.434715 0.000000
							CHANNELS 3 Zrotation Yrotation Xrotation
							JOINT RightForeArm
							{
								OFFSET 0.000000 29.628420 0.000000
								CHANNELS 3 Zrotation Yrotation Xrotation
								JOINT RightHand
								{
									OFFSET -0.000000 22.857611 0.000000
									CHANNELS 3 Zrotation Yrotation Xrotation
									JOINT RightHandThumb1
									{
										OFFSET -2.867323 3.959563 2.944291
										CHANNELS 3 Zrotation Yrotation Xrotation
										JOINT RightHandThumb2
										{
											OFFSET -0.000000 3.350399 -0.000000
											CHANNELS 3 Zrotation Yrotation Xrotation
											JOINT RightHandThumb3
											{
												OFFSET 0.000000 3.756509 0.000000
												CHANNELS 3 Zrotation Yrotation Xrotation
												JOINT RightHandThumb4
												{
													OFFSET 0.000000 3.147345 0.000000
													CHANNELS 3 Zrotation Yrotation Xrotation
													End Site
													{
														OFFSET 0.000000 0.000000 0.000000
													}
												}
											}
										}
									}
									JOINT RightHandIndex1
									{
										OFFSET -0.086752 10.030893 2.345280
										CHANNELS 3 Zrotation Yrotation Xrotation
										JOINT RightHandIndex2
										{
											OFFSET 0.000000 4.061090 0.000000
											CHANNELS 3 Zrotation Yrotation Xrotation
											JOINT RightHandIndex3
											{
												OFFSET 0.000000 3.248873 -0.000000
												CHANNELS 3 Zrotation Yrotation Xrotation
												JOINT RightHandIndex4
												{
													OFFSET 0.000000 2.639709 0.000000
													CHANNELS 3 Zrotation Yrotation Xrotation
													End Site
													{
														OFFSET 0.000000 0.000000 0.000000
													}
												}
											}
										}
									}
									JOINT RightHandMiddle1
									{
										OFFSET 0.104102 9.502952 0.006768
										CHANNELS 3 Zrotation Yrotation Xrotation
										JOINT RightHandMiddle2
										{
											OFFSET -0.000000 4.568727 -0.000000
											CHANNELS 3 Zrotation Yrotation Xrotation
											JOINT RightHandMiddle3
											{
												OFFSET -0.000000 3.654981 -0.000000
												CHANNELS 3 Zrotation Yrotation Xrotation
												JOINT RightHandMiddle4
												{
													OFFSET 0.000000 2.741236 0.000000
													CHANNELS 3 Zrotation Yrotation Xrotation
													End Site
													{
														OFFSET 0.000000 0.000000 0.000000
													}
												}
											}
										}
									}
									JOINT RightHandRing1
									{
										OFFSET 0.086752 8.921708 -2.267442
										CHANNELS 3 Zrotation Yrotation Xrotation
										JOINT RightHandRing2
										{
											OFFSET 0.000000 4.061090 0.000000
											CHANNELS 3 Zrotation Yrotation Xrotation
											JOINT RightHandRing3
											{
												OFFSET 0.000000 3.654981 0.000000
												CHANNELS 3 Zrotation Yrotation Xrotation
												JOINT RightHandRing4
												{
													OFFSET 0.000000 2.741236 0.000000
													CHANNELS 3 Zrotation Yrotation Xrotation
													End Site
													{
														OFFSET 0.000000 0.000000 0.000000
													}
												}
											}
										}
									}
									JOINT RightHandPinky1
									{
										OFFSET -0.173504 7.976997 -4.467199
										CHANNELS 3 Zrotation Yrotation Xrotation
										JOINT RightHandPinky2
										{
											OFFSET 0.000000 3.350399 0.000000
											CHANNELS 3 Zrotation Yrotation Xrotation
											JOINT RightHandPinky3
											{
												OFFSET 0.000000 2.842763 0.000000
												CHANNELS 3 Zrotation Yrotation Xrotation
												JOINT RightHandPinky4
												{
													OFFSET 0.000000 2.639709 0.000000
													CHANNELS 3 Zrotation Yrotation Xrotation
													End Site
													{
														OFFSET 0.000000 0.000000 0.000000
													}
												}
											}
										}
									}
									JOINT RightForeArmEnd
									{
										OFFSET 0.000000 0.000000 0.000000
										CHANNELS 3 Zrotation Yrotation Xrotation
										End Site
										{
											OFFSET 0.000000 0.000000 0.000000
										}
									}
								}
								JOINT RightArmEnd
								{
									OFFSET 0.000000 0.000000 0.000000
									CHANNELS 3 Zrotation Yrotation Xrotation
									End Site
									{
										OFFSET 0.000000 0.000000 0.000000
									}
								}
							}
						}
					}
					JOINT LeftShoulder
					{
						OFFSET 2.625389 11.175210 -0.000000
						CHANNELS 3 Zrotation Yrotation Xrotation
						JOINT LeftArm
						{
							OFFSET -0.000000 10.813635 0.000000
							CHANNELS 3 Zrotation Yrotation Xrotation
							JOINT LeftForeArm
							{
								OFFSET -0.000000 28.724781 0.000000
								CHANNELS 3 Zrotation Yrotation Xrotation
								JOINT LeftHand
								{
									OFFSET 0.644384 25.716167 -0.328871
									CHANNELS 3 Zrotation Yrotation Xrotation
									JOINT LeftHandThumb1
									{
										OFFSET 2.867323 3.959563 2.944291
										CHANNELS 3 Zrotation Yrotation Xrotation
										JOINT LeftHandThumb2
										{
											OFFSET 0.000000 3.350399 -0.000000
											CHANNELS 3 Zrotation Yrotation Xrotation
											JOINT LeftHandThumb3
											{
												OFFSET 0.000000 3.756509 -0.000000
												CHANNELS 3 Zrotation Yrotation Xrotation
												JOINT LeftHandThumb4
												{
													OFFSET 0.000000 3.100000 -0.000000
													CHANNELS 3 Zrotation Yrotation Xrotation
													End Site
													{
														OFFSET 0.000000 0.000000 0.000000
													}
												}
											}
										}
									}
									JOINT LeftHandIndex1
									{
										OFFSET 0.086752 10.030893 2.345280
										CHANNELS 3 Zrotation Yrotation Xrotation
										JOINT LeftHandIndex2
										{
											OFFSET -0.000000 4.061090 -0.000000
											CHANNELS 3 Zrotation Yrotation Xrotation
											JOINT LeftHandIndex3
											{
												OFFSET -0.000000 3.248873 0.000000
												CHANNELS 3 Zrotation Yrotation Xrotation
												JOINT LeftHandIndex4
												{
													OFFSET -0.000000 2.639709 0.000000
													CHANNELS 3 Zrotation Yrotation Xrotation
													End Site
													{
														OFFSET 0.000000 0.000000 0.000000
													}
												}
											}
										}
									}
									JOINT LeftHandMiddle1
									{
										OFFSET -0.104102 9.502952 0.006768
										CHANNELS 3 Zrotation Yrotation Xrotation
										JOINT LeftHandMiddle2
										{
											OFFSET 0.000000 4.568727 -0.000000
											CHANNELS 3 Zrotation Yrotation Xrotation
											JOINT LeftHandMiddle3
											{
												OFFSET 0.000000 3.654981 0.000000
												CHANNELS 3 Zrotation Yrotation Xrotation
												JOINT LeftHandMiddle4
												{
													OFFSET 0.000000 2.741236 0.000000
													CHANNELS 3 Zrotation Yrotation Xrotation
													End Site
													{
														OFFSET 0.000000 0.000000 0.000000
													}
												}
											}
										}
									}
									JOINT LeftHandRing1
									{
										OFFSET -0.086752 8.921708 -2.267442
										CHANNELS 3 Zrotation Yrotation Xrotation
										JOINT LeftHandRing2
										{
											OFFSET -0.000000 4.061090 0.000000
											CHANNELS 3 Zrotation Yrotation Xrotation
											JOINT LeftHandRing3
											{
												OFFSET 0.000000 3.654981 -0.000000
												CHANNELS 3 Zrotation Yrotation Xrotation
												JOINT LeftHandRing4
												{
													OFFSET -0.000000 2.741236 0.000000
													CHANNELS 3 Zrotation Yrotation Xrotation
													End Site
													{
														OFFSET 0.000000 0.000000 0.000000
													}
												}
											}
										}
									}
									JOINT LeftHandPinky1
									{
										OFFSET 0.173504 7.976997 -4.467199
										CHANNELS 3 Zrotation Yrotation Xrotation
										JOINT LeftHandPinky2
										{
											OFFSET 0.000000 3.350399 0.000000
											CHANNELS 3 Zrotation Yrotation Xrotation
											JOINT LeftHandPinky3
											{
												OFFSET -0.000000 2.842763 0.000000
												CHANNELS 3 Zrotation Yrotation Xrotation
												JOINT LeftHandPinky4
												{
													OFFSET -0.000000 2.639709 0.000000
													CHANNELS 3 Zrotation Yrotation Xrotation
													End Site
													{
														OFFSET 0.000000 0.000000 0.000000
													}
												}
											}
										}
									}
									JOINT LeftForeArmEnd
									{
										OFFSET 0.000000 0.000000 0.000000
										CHANNELS 3 Zrotation Yrotation Xrotation
										End Site
										{
											OFFSET 0.000000 0.000000 0.000000
										}
									}
								}
								JOINT LeftArmEnd
								{
									OFFSET 0.000000 0.000000 0.000000
									CHANNELS 3 Zrotation Yrotation Xrotation
									End Site
									{
										OFFSET 0.000000 0.000000 0.000000
									}
								}
							}
						}
					}
				}
			}
		}
	}
	JOINT RightUpLeg
	{
		OFFSET -11.289943 -0.000000 0.000000
		CHANNELS 3 Zrotation Yrotation Xrotation
		JOINT RightLeg
		{
			OFFSET 0.000000 -38.200325 -0.000000
			CHANNELS 3 Zrotation Yrotation Xrotation
			JOINT RightFoot
			{
				OFFSET 0.000000 -39.900856 -0.000000
				CHANNELS 3 Zrotation Yrotation Xrotation
				JOINT RightToeBase
				{
					OFFSET 0.000000 0.000000 15.261641
					CHANNELS 3 Zrotation Yrotation Xrotation
					JOINT RightToeBaseEnd
					{
						OFFSET 0.000000 0.000000 7.370709
						CHANNELS 3 Zrotation Yrotation Xrotation
						End Site
						{
							OFFSET 0.000000 0.000000 0.000000
						}
					}
				}
				JOINT RightLegEnd
				{
					OFFSET 0.000000 0.000000 0.000000
					CHANNELS 3 Zrotation Yrotation Xrotation
					End Site
					{
						OFFSET 0.000000 0.000000 0.000000
					}
				}
			}
			JOINT RightUpLegEnd
			{
				OFFSET 0.000000 0.000000 0.000000
				CHANNELS 3 Zrotation Yrotation Xrotation
				End Site
				{
					OFFSET 0.000000 0.000000 0.000000
				}
			}
		}
	}
	JOINT LeftUpLeg
	{
		OFFSET 11.315661 0.000000 -0.000000
		CHANNELS 3 Zrotation Yrotation Xrotation
		JOINT LeftLeg
		{
			OFFSET -0.000000 -38.200325 0.000000
			CHANNELS 3 Zrotation Yrotation Xrotation
			JOINT LeftFoot
			{
				OFFSET -0.000000 -39.900856 0.000000
				CHANNELS 3 Zrotation Yrotation Xrotation
				JOINT LeftToeBase
				{
					OFFSET 0.000000 -0.000000 15.261641
					CHANNELS 3 Zrotation Yrotation Xrotation
					JOINT LeftToeBaseEnd
					{
						OFFSET 0.000000 0.000000 7.539996
						CHANNELS 3 Zrotation Yrotation Xrotation
						End Site
						{
							OFFSET 0.000000 0.000000 0.000000
						}
					}
				}
				JOINT LeftLegEnd
				{
					OFFSET 0.000000 0.000000 0.000000
					CHANNELS 3 Zrotation Yrotation Xrotation
					End Site
					{
						OFFSET 0.000000 0.000000 0.000000
					}
				}
			}
			JOINT LeftUpLegEnd
			{
				OFFSET 0.000000 0.000000 0.000000
				CHANNELS 3 Zrotation Yrotation Xrotation
				End Site
				{
					OFFSET 0.000000 0.000000 0.000000
				}
			}
		}
	}
}
MOTION
Frames: 4
Frame Time: 0.016667
25.375355 85.383354 11.892612 5.114422 -7.300413 -17.326408 -3.439716 0.832585 7.337475 2.427761 -0.325642 0.782869 -6.906450 3.089617 18.512674 -0.380744 -0.357637 0.926115 6.470693 1.951162 9.517800 -1.983890 1.336810 -8.316250 1.278771 3.301474 -25.001566 0.000000 0.000000 0.000000 98.898361 -0.762538 4.840436 68.392075 -10.367926 5.396159 2.564807 28.501081 31.651850 -18.030100 19.174194 -11.008334 3.696845 -0.756439 43.322906 0.000013 0.000037 -8.481608 0.000021 0.000052 -5.820028 0.000010 0.000018 -0.000038 -23.492680 0.217973 1.172256 -0.018904 -0.002754 0.157289 -0.211868 0.027038 0.146511 -0.000011 0.000008 0.000001 -22.750200 0.086957 -3.419523 -0.194370 -0.012173 0.081025 -0.209180 0.001670 0.073237 -0.000003 0.000110 0.000009 -22.150415 -0.086378 -9.402489 -0.427524 0.051872 -0.204482 -0.462346 0.013376 -0.164671 0.000006 -0.002279 0.000027 -18.687092 -0.210322 -15.628340 -0.696654 0.165457 -0.784765 -0.700121 0.060312 -0.662852 -0.000020 -0.000014 -0.000029 0.000000 0.000000 0.000000 0.000000 0.000000 0.000000 -94.134216 0.735660 3.154344 -59.561794 12.438030 -0.229836 -5.067735 -19.726196 48.993004 19.257401 -11.706372 -19.780554 -3.241432 0.717194 43.423035 0.000015 0.000012 -7.920442 -0.000129 -0.000041 -5.422048 0.000618 0.000002 -0.002301 22.174751 0.161068 -4.391279 -0.516454 0.015379 0.066412 -0.657452 0.041872 0.016413 -0.000006 0.000483 -0.000004 19.639772 0.080066 -8.030620 -0.580897 -0.007903 -0.012225 -0.280792 0.004206 -0.012669 0.001680 -0.000057 -0.000156 16.064287 -0.043256 -10.600222 0.000038 0.024222 0.072129 -0.016094 -0.003632 0.061113 0.000683 0.000019 0.000003 12.824717 -0.168349 -12.902225 -0.010166 0.096920 0.397280 0.076007 0.006632 0.252948 -0.001427 -0.000000 -0.000027 0.000000 0.000000 0.000000 0.000000 0.000000 0.000000 -20.247290 1.238140 10.382708 -0.552957 -1.235972 24.279181 9.756562 -10.241170 13.617781 -1.219101 -1.584249 -26.869917 0.000000 0.000000 0.000000 0.000000 0.000000 0.000000 0.000000 0.000000 0.000000 -9.327029 10.835773 16.700006 -0.002823 0.129300 13.764080 10.152439 13.954609 12.738337 -0.500469 0.739839 -27.260870 0.000000 0.000000 0.000000 0.000000 0.000000 0.000000 0.000000 0.000000 0.000000 
25.406256 85.380539 11.870952 5.126421 -7.329190 -17.265026 -3.451971 0.835814 7.336621 2.414991 -0.323437 0.767713 -6.903258 3.086421 18.505383 -0.392534 -0.352099 0.911660 6.493502 1.916699 9.542497 -1.976348 1.311925 -8.292809 1.283669 3.299068 -24.992037 0.000000 0.000000 0.000000 98.874939 -0.751372 4.845019 68.403221 -10.438497 5.399092 2.557148 28.512674 31.763325 -17.677511 19.277758 -10.945522 3.800172 -0.776991 43.272007 0.000013 0.000038 -8.742755 0.000021 0.000052 -6.001015 0.000010 0.000018 -0.000038 -22.900234 0.218895 0.988470 -0.085303 -0.004104 0.162535 -0.283477 0.026169 0.151493 -0.000011 0.000008 0.000001 -22.154757 0.086814 -3.562515 -0.267045 -0.012854 0.083393 -0.278734 0.001294 0.075099 -0.000004 0.000112 0.000009 -21.551088 -0.087196 -9.478396 -0.501377 0.052497 -0.207806 -0.534610 0.014129 -0.167372 0.000006 -0.002238 0.000027 -18.157066 -0.211495 -15.648775 -0.757373 0.167294 -0.790628 -0.765710 0.062476 -0.668096 -0.000008 -0.000014 -0.000029 0.000000 0.000000 0.000000 0.000000 0.000000 0.000000 -94.099777 0.735394 3.134060 -59.439541 12.395209 -0.185917 -5.087250 -19.792871 48.927753 18.615929 -12.269973 -19.940397 -3.404140 0.745810 43.344322 0.000015 0.000012 -8.332212 -0.000128 -0.000041 -5.712909 0.000626 0.000002 -0.002294 21.203728 0.162311 -4.647777 -0.427972 0.013146 0.058568 -0.569240 0.039519 0.009353 -0.000006 0.000478 -0.000004 18.674618 0.080812 -8.226928 -0.502376 -0.008836 -0.015239 -0.204577 0.003548 -0.014937 0.001668 -0.000057 -0.000155 15.045511 -0.044392 -10.694901 0.010027 0.024984 0.073801 -0.004680 -0.003071 0.063150 0.000689 0.000019 0.000003 11.844072 -0.170962 -12.930546 -0.060429 0.098140 0.401400 0.022619 0.008029 0.257282 -0.001441 -0.000000 -0.000027 0.000000 0.000000 0.000000 0.000000 0.000000 0.000000 -20.271145 1.283395 10.269291 -0.554641 -1.239952 24.306707 9.792139 -10.215046 13.664500 -1.215792 -1.580740 -26.894409 0.000000 0.000000 0.000000 0.000000 0.000000 0.000000 0.000000 0.000000 0.000000 -9.360339 10.871352 16.664007 -0.004216 0.123171 13.721222 10.179723 13.991683 12.766803 -0.503199 0.741572 -27.270754 0.000000 0.000000 0.000000 0.000000 0.000000 0.000000 0.000000 0.000000 0.000000 
25.436968 85.376404 11.849954 5.138446 -7.352289 -17.200607 -3.464848 0.837432 7.334911 2.405878 -0.323771 0.758169 -6.900725 3.081350 18.497423 -0.400764 -0.349301 0.897076 6.510302 1.889373 9.552390 -1.967629 1.293590 -8.275583 1.286421 3.297279 -24.978460 0.000000 0.000000 0.000000 98.862083 -0.742840 4.846324 68.394295 -10.514985 5.387904 2.543667 28.506411 31.900192 -17.323025 19.303526 -10.860047 3.905676 -0.797670 43.219929 0.000013 0.000038 -9.011363 0.000021 0.000052 -6.187993 0.000010 0.000018 -0.000038 -22.291166 0.219883 0.811332 -0.149666 -0.005464 0.167561 -0.353817 0.025302 0.156283 -0.000011 0.000009 0.000001 -21.551500 0.086760 -3.701895 -0.335735 -0.013518 0.085529 -0.344889 0.000930 0.076754 -0.000004 0.000115 0.000009 -20.948393 -0.088104 -9.559623 -0.567083 0.053080 -0.210634 -0.598826 0.014801 -0.169635 0.000006 -0.002185 0.000027 -17.629448 -0.212720 -15.678124 -0.806881 0.168679 -0.794506 -0.819081 0.064162 -0.671624 -0.000000 -0.000014 -0.000029 0.000000 0.000000 0.000000 0.000000 0.000000 0.000000 -94.073151 0.737733 3.115955 -59.314022 12.326632 -0.163292 -5.105546 -19.836737 48.854809 17.947615 -12.816930 -20.070099 -3.573082 0.775196 43.263226 0.000014 0.000012 -8.757736 -0.000127 -0.000041 -6.013274 0.000623 0.000003 -0.002283 20.210873 0.163744 -4.921633 -0.344881 0.011372 0.054112 -0.486343 0.037642 0.005167 -0.000006 0.000477 -0.000005 17.690136 0.081668 -8.439429 -0.433441 -0.009590 -0.016804 -0.138323 0.003085 -0.016040 0.001651 -0.000057 -0.000154 14.008452 -0.045557 -10.805903 -0.001501 0.025373 0.073293 -0.015176 -0.002791 0.063629 0.000699 0.000019 0.000003 10.848220 -0.173285 -12.972537 -0.138523 0.098467 0.398372 -0.060306 0.008539 0.255970 -0.001457 -0.000001 -0.000027 0.000000 0.000000 0.000000 0.000000 0.000000 0.000000 -20.295864 1.321795 10.147943 -0.556287 -1.243505 24.342951 9.827127 -10.197329 13.712729 -1.212950 -1.578114 -26.920944 0.000000 0.000000 0.000000 0.000000 0.000000 0.000000 0.000000 0.000000 0.000000 -9.394362 10.901632 16.623032 -0.005502 0.117317 13.687738 10.203780 14.024693 12.792045 -0.506660 0.743075 -27.282831 0.000000 0.000000 0.000000 0.000000 0.000000 0.000000 0.000000 0.000000 0.000000 
25.467459 85.370750 11.830352 5.150827 -7.370062 -17.135521 -3.477981 0.837542 7.333273 2.400830 -0.326335 0.752716 -6.899858 3.074997 18.489391 -0.405934 -0.349534 0.880400 6.518982 1.869277 9.551535 -1.958031 1.281211 -8.262204 1.286854 3.295714 -24.962000 0.000000 0.000000 0.000000 98.859383 -0.735798 4.845722 68.369255 -10.591565 5.365095 2.525220 28.486952 32.061195 -16.982189 19.261663 -10.763793 4.010462 -0.817728 43.168358 0.000013 0.000038 -9.279142 0.000022 0.000052 -6.375275 0.000010 0.000018 -0.000039 -21.686495 0.220881 0.644827 -0.209474 -0.006755 0.172570 -0.420016 0.024486 0.161054 -0.000011 0.000009 0.000001 -20.959869 0.086795 -3.833803 -0.397819 -0.014134 0.087496 -0.405031 0.000588 0.078267 -0.000004 0.000117 0.000009 -20.359249 -0.089054 -9.642956 -0.621838 0.053595 -0.213035 -0.652116 0.015372 -0.171523 0.000006 -0.002121 0.000027 -17.116617 -0.213822 -15.713423 -0.842401 0.169500 -0.796693 -0.857411 0.065285 -0.673671 0.000004 -0.000014 -0.000029 0.000000 0.000000 0.000000 0.000000 0.000000 0.000000 -94.053909 0.740719 3.101718 -59.192635 12.237509 -0.157895 -5.122063 -19.858164 48.775467 17.270090 -13.350490 -20.176405 -3.746078 0.804972 43.180668 0.000014 0.000012 -9.191986 -0.000127 -0.000041 -6.319456 0.000609 0.000003 -0.002267 19.210794 0.165308 -5.209006 -0.269310 0.010170 0.053206 -0.411004 0.036369 0.004028 -0.000005 0.000479 -0.000005 16.700235 0.082599 -8.664455 -0.375689 -0.010112 -0.016857 -0.083683 0.002844 -0.015936 0.001633 -0.000057 -0.000154 12.967390 -0.046712 -10.930226 -0.034829 0.025337 0.070590 -0.047891 -0.002822 0.062518 0.000713 0.000019 0.000003 9.851280 -0.175234 -13.025449 -0.243402 0.097793 0.388317 -0.171269 0.008065 0.248993 -0.001471 -0.000001 -0.000027 0.000000 0.000000 0.000000 0.000000 0.000000 0.000000 -20.323410 1.351030 10.020388 -0.557921 -1.246490 24.389339 9.862197 -10.189713 13.761271 -1.210875 -1.576365 -26.948433 0.000000 0.000000 0.000000 0.000000 0.000000 0.000000 0.000000 0.000000 0.000000 -9.430589 10.925257 16.576830 -0.006644 0.112010 13.664956 10.225710 14.051635 12.812607 -0.511004 0.743965 -27.295630 0.000000 0.000000 0.000000 0.000000 0.000000 0.000000 0.000000 0.000000 0.000000 
